# xmcd
#
# Track frame offsets:
#	150
#	20526
#	36339
#	48244
#
# Disc length: 852 seconds
#
# Revision: 1
# Processed by: cddbd v1.4PL0 Copyright (c) Steve Scherf et al.
# Submitted via: audiograbber 1.80
#
DISCID=2b035204
DTITLE=Betty Fiori - My Dream
DYEAR=1900
DGENRE=
TTITLE0=A Miragem
TTITLE1=A História de Lily Braun
TTITLE2=Triste
TTITLE3=Samba E Amor
EXTD=
EXTT0=
EXTT1=
EXTT2=
EXTT3=
PLAYORDER=
